<svg width="20" height="20" viewBox="0 0 20 20" fill="none" xmlns="http://www.w3.org/2000/svg">
  <path d="M10.4 3C11.9 3 13.3 3.5 14.4 4.5L13.2 5.9C12.5 5.2 11.5 4.8 10.4 4.8C9.3 4.8 8.4 5.2 7.6 5.9C6.9 6.7 6.5 7.6 6.5 8.7C6.5 9.8 6.9 10.7 7.6 11.5C8.4 12.2 9.3 12.6 10.4 12.6C11.5 12.6 12.5 12.2 13.2 11.5L14.4 12.9C13.3 13.9 11.9 14.4 10.4 14.4C8.8 14.4 7.4 13.8 6.2 12.7C5.1 11.5 4.5 10.1 4.5 8.7C4.5 7.2 5.1 5.8 6.2 4.7C7.4 3.5 8.8 3 10.4 3Z" fill="#FFFFFF"/>
  <path d="M9.2 1.8H11V18.2H9.2V1.8Z" fill="#FFFFFF"/>
  <path d="M14.4 8.7C14.4 9.2 14 9.6 13.5 9.6H8.1C7.6 9.6 7.2 9.2 7.2 8.7C7.2 8.2 7.6 7.8 8.1 7.8H13.5C14 7.8 14.4 8.2 14.4 8.7Z" fill="#FFFFFF"/>
</svg>
