<svg preserveAspectRatio="none" width="100%" height="100%" overflow="visible" style="display: block;" viewBox="0 0 15 15" fill="none" xmlns="http://www.w3.org/2000/svg">
<g id="heart 8">
<path id="Vector" d="M6.61523 13.7162L6.54199 13.6488L1.40918 8.88218C0.509766 8.04722 0 6.87534 0 5.6478V5.55112C0 3.48862 1.46484 1.71909 3.49219 1.33237C4.64648 1.10972 5.82715 1.37632 6.76758 2.03843C7.03125 2.22593 7.27734 2.44272 7.5 2.69175C7.62305 2.55112 7.75488 2.42222 7.89551 2.3021C8.00391 2.20835 8.11523 2.12046 8.23242 2.03843C9.17285 1.37632 10.3535 1.10972 11.5078 1.32944C13.5352 1.71616 15 3.48862 15 5.55112V5.6478C15 6.87534 14.4902 8.04722 13.5908 8.88218L8.45801 13.6488L8.38477 13.7162C8.14453 13.9388 7.82812 14.0648 7.5 14.0648C7.17188 14.0648 6.85547 13.9417 6.61523 13.7162ZM7.00488 4.24741C6.99316 4.23862 6.98438 4.2269 6.97559 4.21519L6.4541 3.62925L6.45117 3.62632C5.77441 2.86753 4.75195 2.52183 3.75586 2.71226C2.39062 2.973 1.40625 4.16245 1.40625 5.55112V5.6478C1.40625 6.48276 1.75488 7.28257 2.36719 7.85093L7.5 12.6175L12.6328 7.85093C13.2451 7.28257 13.5938 6.48276 13.5938 5.6478V5.55112C13.5938 4.16538 12.6094 2.973 11.2471 2.71226C10.251 2.52183 9.22559 2.87046 8.55176 3.62632C8.55176 3.62632 8.55176 3.62632 8.54883 3.62925C8.5459 3.63218 8.54883 3.62925 8.5459 3.63218L8.02441 4.21812C8.01562 4.22983 8.00391 4.23862 7.99512 4.25034C7.86328 4.38218 7.68457 4.45542 7.5 4.45542C7.31543 4.45542 7.13672 4.38218 7.00488 4.25034V4.24741Z" fill="#57626F"/>
</g>
</svg>
